<?xml version="1.0" encoding="UTF-8"?><svg id="Layer_1" xmlns="http://www.w3.org/2000/svg" viewBox="0 0 733.33 683.33"><defs><style>.cls-1{fill:#fff;}</style></defs><g id="Layer_2"><g id="icons_Q2"><g><circle class="cls-1" cx="600" cy="533.33" r="33.33"/><circle class="cls-1" cx="500" cy="533.33" r="33.33"/><circle class="cls-1" cx="600" cy="333.33" r="33.33"/><circle class="cls-1" cx="500" cy="333.33" r="33.33"/><path class="cls-1" d="M700,0H33.33C14.92,0,0,14.92,0,33.33V233.33c0,18.41,14.92,33.33,33.33,33.33H666.67v133.33h-233.33c-18.41,0-33.33,14.92-33.33,33.33s14.92,33.33,33.33,33.33h233.33v133.33h-233.33c-18.41,0-33.33,14.92-33.33,33.33s14.92,33.33,33.33,33.33h266.67c18.41,0,33.33-14.92,33.33-33.33V33.33c0-18.41-14.92-33.33-33.33-33.33Zm-33.33,200H66.67V66.67H666.67V200Z"/><circle class="cls-1" cx="600" cy="133.33" r="33.33"/><circle class="cls-1" cx="500" cy="133.33" r="33.33"/><path class="cls-1" d="M300,416.67h-16.67c0-55.23-44.77-100-100-100s-100,44.77-100,100h-16.67c-18.41,0-33.33,14.92-33.33,33.33v200c0,18.41,14.92,33.33,33.33,33.33h233.33c18.41,0,33.33-14.92,33.33-33.33v-200c0-18.41-14.92-33.33-33.33-33.33Zm-116.67-33.33c18.41,0,33.33,14.92,33.33,33.33h-66.67c0-18.41,14.92-33.33,33.33-33.33Zm83.33,233.33H100v-133.33h166.67v133.33Z"/><rect class="cls-1" x="166.67" y="516.67" width="33.33" height="66.67"/></g></g></g></svg>