<svg width="293" height="162" viewBox="0 0 293 162" fill="none" xmlns="http://www.w3.org/2000/svg">
    <g filter="url(#filter0_b_79_254)">
        <path fill-rule="evenodd" clip-rule="evenodd"
            d="M165.531 32L159.187 20C153.548 9.33334 139.452 9.33332 133.813 20L127.469 32C126.225 34.3541 125.598 36.8381 125.499 39.28C103.651 37.896 79.93 34.6986 59.0535 31.2976C30.9559 26.7201 16.9071 24.4313 8.45357 31.6192C0 38.807 0 52.5874 0 80.1483V162H293V80.1483C293 52.5874 293 38.807 284.546 31.6192C276.093 24.4313 262.044 26.7201 233.947 31.2976C213.07 34.6986 189.349 37.896 167.501 39.28C167.402 36.8381 166.775 34.3541 165.531 32ZM163.838 39.4958C163.768 37.6529 163.299 35.7771 162.359 34L156.015 22C151.786 14 141.214 14 136.985 22L130.641 34C129.701 35.7771 129.232 37.6529 129.162 39.4958C135.138 39.8206 140.95 40 146.5 40C152.05 40 157.862 39.8206 163.838 39.4958Z"
            fill="url(#paint0_angular_79_254)" fill-opacity="0.3" />
        <path fill-rule="evenodd" clip-rule="evenodd"
            d="M165.531 32L159.187 20C153.548 9.33334 139.452 9.33332 133.813 20L127.469 32C126.225 34.3541 125.598 36.8381 125.499 39.28C103.651 37.896 79.93 34.6986 59.0535 31.2976C30.9559 26.7201 16.9071 24.4313 8.45357 31.6192C0 38.807 0 52.5874 0 80.1483V162H293V80.1483C293 52.5874 293 38.807 284.546 31.6192C276.093 24.4313 262.044 26.7201 233.947 31.2976C213.07 34.6986 189.349 37.896 167.501 39.28C167.402 36.8381 166.775 34.3541 165.531 32ZM163.838 39.4958C163.768 37.6529 163.299 35.7771 162.359 34L156.015 22C151.786 14 141.214 14 136.985 22L130.641 34C129.701 35.7771 129.232 37.6529 129.162 39.4958C135.138 39.8206 140.95 40 146.5 40C152.05 40 157.862 39.8206 163.838 39.4958Z"
            fill="url(#paint1_radial_79_254)" />
        <path fill-rule="evenodd" clip-rule="evenodd"
            d="M165.531 32L159.187 20C153.548 9.33334 139.452 9.33332 133.813 20L127.469 32C126.225 34.3541 125.598 36.8381 125.499 39.28C103.651 37.896 79.93 34.6986 59.0535 31.2976C30.9559 26.7201 16.9071 24.4313 8.45357 31.6192C0 38.807 0 52.5874 0 80.1483V162H293V80.1483C293 52.5874 293 38.807 284.546 31.6192C276.093 24.4313 262.044 26.7201 233.947 31.2976C213.07 34.6986 189.349 37.896 167.501 39.28C167.402 36.8381 166.775 34.3541 165.531 32ZM163.838 39.4958C163.768 37.6529 163.299 35.7771 162.359 34L156.015 22C151.786 14 141.214 14 136.985 22L130.641 34C129.701 35.7771 129.232 37.6529 129.162 39.4958C135.138 39.8206 140.95 40 146.5 40C152.05 40 157.862 39.8206 163.838 39.4958Z"
            fill="black" fill-opacity="0.5" />
    </g>
    <path
        d="M135.767 21.4662C140.189 12.6217 152.811 12.6217 157.233 21.4663L163.317 33.6334C167.306 41.6123 161.504 51 152.584 51H140.416C131.496 51 125.694 41.6123 129.683 33.6334L135.767 21.4662Z"
        fill="url(#paint2_linear_79_254)" />
    <defs>
        <filter id="filter0_b_79_254" x="-50" y="-38" width="393" height="250" filterUnits="userSpaceOnUse"
            color-interpolation-filters="sRGB">
            <feFlood flood-opacity="0" result="BackgroundImageFix" />
            <feGaussianBlur in="BackgroundImageFix" stdDeviation="25" />
            <feComposite in2="SourceAlpha" operator="in" result="effect1_backgroundBlur_79_254" />
            <feBlend mode="normal" in="SourceGraphic" in2="effect1_backgroundBlur_79_254" result="shape" />
        </filter>
        <radialGradient id="paint0_angular_79_254" cx="0" cy="0" r="1" gradientUnits="userSpaceOnUse"
            gradientTransform="translate(146.5 67.4577) rotate(90) scale(94.5423 120.614)">
            <stop offset="0.0176888" stop-color="#F449F4" />
            <stop offset="0.426852" stop-color="#0019C0" />
            <stop offset="0.693679" stop-color="#7976E8" />
        </radialGradient>
        <radialGradient id="paint1_radial_79_254" cx="0" cy="0" r="1" gradientUnits="userSpaceOnUse"
            gradientTransform="translate(143.753 57.4225) rotate(86.1854) scale(82.5773 66.2357)">
            <stop stop-color="#31376F" />
            <stop offset="1" stop-color="#894BA2" stop-opacity="0" />
        </radialGradient>
        <linearGradient id="paint2_linear_79_254" x1="146.5" y1="0" x2="146.5" y2="68" gradientUnits="userSpaceOnUse">
            <stop stop-color="#C441F4" />
            <stop offset="1" stop-color="#00DAEA" />
        </linearGradient>
    </defs>
</svg>